<svg xmlns="http://www.w3.org/2000/svg" xmlns:xlink="http://www.w3.org/1999/xlink" width="2000" zoomAndPan="magnify" viewBox="0 0 1500 1499.999933" height="2000" preserveAspectRatio="xMidYMid meet" version="1.0"><defs><clipPath id="9bf8a2ee65"><path d="M 615.59375 464.894531 L 894.996094 464.894531 L 894.996094 1004 L 615.59375 1004 Z M 615.59375 464.894531 " clip-rule="nonzero"/></clipPath><clipPath id="83c9eef055"><path d="M 690.59375 464.894531 L 819.996094 464.894531 C 839.886719 464.894531 858.964844 472.796875 873.027344 486.859375 C 887.09375 500.925781 894.996094 520.003906 894.996094 539.894531 L 894.996094 928.621094 C 894.996094 948.511719 887.09375 967.585938 873.027344 981.652344 C 858.964844 995.71875 839.886719 1003.621094 819.996094 1003.621094 L 690.59375 1003.621094 C 670.703125 1003.621094 651.625 995.71875 637.5625 981.652344 C 623.496094 967.585938 615.59375 948.511719 615.59375 928.621094 L 615.59375 539.894531 C 615.59375 520.003906 623.496094 500.925781 637.5625 486.859375 C 651.625 472.796875 670.703125 464.894531 690.59375 464.894531 Z M 690.59375 464.894531 " clip-rule="nonzero"/></clipPath><clipPath id="4ee43e12aa"><path d="M 0.59375 0.894531 L 279.996094 0.894531 L 279.996094 539.679688 L 0.59375 539.679688 Z M 0.59375 0.894531 " clip-rule="nonzero"/></clipPath><clipPath id="bb3d359c6e"><path d="M 75.59375 0.894531 L 204.996094 0.894531 C 224.886719 0.894531 243.964844 8.796875 258.027344 22.859375 C 272.09375 36.925781 279.996094 56.003906 279.996094 75.894531 L 279.996094 464.621094 C 279.996094 484.511719 272.09375 503.585938 258.027344 517.652344 C 243.964844 531.71875 224.886719 539.621094 204.996094 539.621094 L 75.59375 539.621094 C 55.703125 539.621094 36.625 531.71875 22.5625 517.652344 C 8.496094 503.585938 0.59375 484.511719 0.59375 464.621094 L 0.59375 75.894531 C 0.59375 56.003906 8.496094 36.925781 22.5625 22.859375 C 36.625 8.796875 55.703125 0.894531 75.59375 0.894531 Z M 75.59375 0.894531 " clip-rule="nonzero"/></clipPath><clipPath id="5a4db3d7fc"><rect x="0" width="280" y="0" height="540"/></clipPath></defs><rect x="-150" width="1800" fill="#ffffff" y="-149.999993" height="1799.99992" fill-opacity="1"/><rect x="-150" width="1800" fill="#000003" y="-149.999993" height="1799.99992" fill-opacity="1"/><path fill="#061734" d="M 755.746094 474.992188 C 802.539062 474.976562 840.507812 512.945312 840.496094 559.746094 C 840.503906 606.519531 802.539062 644.484375 756.132812 644.109375 C 709.351562 644.101562 671.382812 606.132812 671.382812 559.355469 C 671 512.945312 708.964844 474.980469 755.746094 474.992188 Z M 755.746094 474.992188 " fill-opacity="1" fill-rule="evenodd"/><path fill="#061734" d="M 755.941406 725.5 C 831.488281 725.128906 892.460938 786.101562 892.082031 861.636719 C 892.464844 937.195312 831.492188 998.164062 755.933594 997.785156 C 680.777344 997.789062 619.804688 936.816406 619.796875 861.644531 C 619.804688 786.476562 680.773438 725.503906 755.941406 725.5 Z M 755.941406 725.5 " fill-opacity="1" fill-rule="evenodd"/><path fill="#1b17ff" d="M 752.683594 1046.101562 C 880.777344 1047.644531 976.644531 945.632812 968.980469 818.3125 C 956.699219 611.214844 1148.449219 584.378906 1165.324219 736.246094 C 1167.628906 757.714844 1168.011719 778.050781 1166.847656 798.375 C 1166.089844 802.207031 1164.941406 806.414062 1164.175781 810.257812 C 1121.980469 960.59375 893.808594 1046.875 751.90625 1049.949219 Z M 752.683594 1046.101562 " fill-opacity="1" fill-rule="evenodd"/><path fill="#7aacff" d="M 755.753906 1164.222656 C 536.003906 1163.847656 319.71875 978.230469 346.554688 736.632812 C 363.433594 584.753906 554.800781 611.214844 542.519531 818.3125 C 541.75 838.257812 542.515625 857.425781 546.359375 875.832031 C 556.335938 1020.796875 647.988281 1183.78125 816.34375 1155.785156 L 819.023438 1159.238281 C 798.324219 1162.304688 777.226562 1164.226562 755.753906 1164.226562 Z M 755.753906 1164.222656 " fill-opacity="1" fill-rule="evenodd"/><path fill="#3681ff" d="M 542.144531 833.265625 C 542.515625 951.769531 632.644531 1046.496094 755.746094 1046.105469 C 761.882812 1046.109375 768.40625 1045.734375 774.15625 1045.347656 C 936.753906 1034.601562 1174.902344 921.46875 1166.859375 754.65625 C 1180.28125 972.085938 996.96875 1140.070312 798.699219 1161.929688 C 634.171875 1176.878906 536.007812 1000.472656 542.144531 833.265625 Z M 542.144531 833.265625 " fill-opacity="1" fill-rule="evenodd"/><path fill="#7aacff" d="M 584.71875 372.96875 C 638.785156 348.046875 697.070312 335.773438 756.128906 335.769531 C 868.878906 335.78125 981.234375 382.183594 1061.011719 474.984375 C 1139.238281 567.792969 1029.179688 660.988281 930.625 537.121094 C 920.648438 524.078125 907.617188 510.265625 891.886719 497.617188 C 807.910156 402.125 720.078125 323.503906 585.859375 376.429688 Z M 584.71875 372.96875 " fill-opacity="1" fill-rule="evenodd"/><path fill="#1b17ff" d="M 756.128906 446.226562 C 675.589844 444.6875 613.855469 495.6875 580.875 537.113281 C 482.691406 661.371094 372.25 567.789062 450.484375 474.980469 C 486.910156 433.191406 603.125 425.890625 655.65625 427.054688 C 716.621094 428.96875 787.585938 438.546875 843.566406 462.320312 L 843.191406 465.761719 C 817.875 453.515625 788.335938 445.460938 756.128906 446.226562 Z M 756.128906 446.226562 " fill-opacity="1" fill-rule="evenodd"/><path fill="#3681ff" d="M 917.96875 522.15625 C 898.410156 501.0625 871.953125 479.203125 840.125 464.242188 C 826.3125 458.117188 812.125 453.136719 796.792969 450.050781 C 682.882812 419.761719 488.0625 417.457031 436.292969 495.3125 C 440.132812 488.40625 444.726562 481.507812 450.484375 474.980469 C 489.988281 429.339844 536.765625 394.835938 588.160156 371.824219 C 729.667969 316.21875 822.480469 411.320312 917.96875 522.15625 Z M 917.96875 522.15625 " fill-opacity="1" fill-rule="evenodd"/><g clip-path="url(#9bf8a2ee65)"><g clip-path="url(#83c9eef055)"><g transform="matrix(1, 0, 0, 1, 615, 464)"><g clip-path="url(#5a4db3d7fc)"><g clip-path="url(#4ee43e12aa)"><g clip-path="url(#bb3d359c6e)"><path fill="#000003" d="M 0.59375 0.894531 L 279.996094 0.894531 L 279.996094 540.050781 L 0.59375 540.050781 Z M 0.59375 0.894531 " fill-opacity="1" fill-rule="nonzero"/></g></g></g></g></g></g></svg>