<svg xmlns="http://www.w3.org/2000/svg" xmlns:xlink="http://www.w3.org/1999/xlink" width="2000" zoomAndPan="magnify" viewBox="0 0 1500 1499.999933" height="2000" preserveAspectRatio="xMidYMid meet" version="1.0"><defs><g/><clipPath id="a574e87b54"><path d="M 198.058594 646.9375 L 298.183594 646.9375 L 298.183594 840 L 198.058594 840 Z M 198.058594 646.9375 " clip-rule="nonzero"/></clipPath><clipPath id="7eacbe3295"><path d="M 248.121094 646.9375 C 261.398438 646.9375 274.132812 652.214844 283.519531 661.601562 C 292.90625 670.988281 298.183594 683.722656 298.183594 697 L 298.183594 789.929688 C 298.183594 803.207031 292.90625 815.9375 283.519531 825.328125 C 274.132812 834.714844 261.398438 839.988281 248.121094 839.988281 C 234.84375 839.988281 222.109375 834.714844 212.722656 825.328125 C 203.335938 815.9375 198.058594 803.207031 198.058594 789.929688 L 198.058594 697 C 198.058594 683.722656 203.335938 670.988281 212.722656 661.601562 C 222.109375 652.214844 234.84375 646.9375 248.121094 646.9375 Z M 248.121094 646.9375 " clip-rule="nonzero"/></clipPath><clipPath id="fe962c7cef"><path d="M 0.0585938 0.9375 L 100.183594 0.9375 L 100.183594 194 L 0.0585938 194 Z M 0.0585938 0.9375 " clip-rule="nonzero"/></clipPath><clipPath id="4ce7657df1"><path d="M 50.121094 0.9375 C 63.398438 0.9375 76.132812 6.214844 85.519531 15.601562 C 94.90625 24.988281 100.183594 37.722656 100.183594 51 L 100.183594 143.929688 C 100.183594 157.207031 94.90625 169.9375 85.519531 179.328125 C 76.132812 188.714844 63.398438 193.988281 50.121094 193.988281 C 36.84375 193.988281 24.109375 188.714844 14.722656 179.328125 C 5.335938 169.9375 0.0585938 157.207031 0.0585938 143.929688 L 0.0585938 51 C 0.0585938 37.722656 5.335938 24.988281 14.722656 15.601562 C 24.109375 6.214844 36.84375 0.9375 50.121094 0.9375 Z M 50.121094 0.9375 " clip-rule="nonzero"/></clipPath><clipPath id="8e0d81ff75"><rect x="0" width="101" y="0" height="194"/></clipPath><clipPath id="6138c34757"><rect x="0" width="628" y="0" height="268"/></clipPath></defs><rect x="-150" width="1800" fill="#ffffff" y="-149.999993" height="1799.99992" fill-opacity="1"/><rect x="-150" width="1800" fill="#fafafa" y="-149.999993" height="1799.99992" fill-opacity="1"/><path fill="#061734" d="M 248.28125 650.558594 C 265.050781 650.550781 278.65625 664.15625 278.652344 680.929688 C 278.65625 697.691406 265.050781 711.296875 248.421875 711.160156 C 231.65625 711.15625 218.050781 697.550781 218.050781 680.789062 C 217.914062 664.160156 231.519531 650.554688 248.28125 650.558594 Z M 248.28125 650.558594 " fill-opacity="1" fill-rule="evenodd"/><path fill="#061734" d="M 248.351562 740.324219 C 275.421875 740.195312 297.273438 762.042969 297.136719 789.109375 C 297.273438 816.1875 275.425781 838.035156 248.347656 837.898438 C 221.417969 837.898438 199.566406 816.050781 199.566406 789.113281 C 199.566406 762.175781 221.414062 740.328125 248.351562 740.324219 Z M 248.351562 740.324219 " fill-opacity="1" fill-rule="evenodd"/><path fill="#1b17ff" d="M 247.183594 855.210938 C 293.085938 855.765625 327.4375 819.210938 324.691406 773.585938 C 320.292969 699.371094 389.003906 689.757812 395.050781 744.175781 C 395.878906 751.871094 396.015625 759.15625 395.597656 766.441406 C 395.324219 767.8125 394.914062 769.320312 394.640625 770.699219 C 379.519531 824.570312 297.753906 855.488281 246.90625 856.589844 Z M 247.183594 855.210938 " fill-opacity="1" fill-rule="evenodd"/><path fill="#7aacff" d="M 248.285156 897.542969 C 169.539062 897.40625 92.03125 830.890625 101.648438 744.316406 C 107.699219 689.890625 176.273438 699.371094 171.871094 773.585938 C 171.597656 780.734375 171.871094 787.601562 173.25 794.195312 C 176.824219 846.144531 209.667969 904.550781 269.996094 894.515625 L 270.957031 895.753906 C 263.539062 896.851562 255.980469 897.542969 248.285156 897.542969 Z M 248.285156 897.542969 " fill-opacity="1" fill-rule="evenodd"/><path fill="#3681ff" d="M 171.738281 778.941406 C 171.871094 821.410156 204.167969 855.351562 248.28125 855.214844 C 250.480469 855.214844 252.816406 855.078125 254.878906 854.941406 C 313.144531 851.089844 398.484375 810.550781 395.601562 750.773438 C 400.410156 828.6875 334.722656 888.886719 263.675781 896.71875 C 204.714844 902.074219 169.539062 838.859375 171.738281 778.941406 Z M 171.738281 778.941406 " fill-opacity="1" fill-rule="evenodd"/><path fill="#7aacff" d="M 186.996094 614 C 206.367188 605.066406 227.253906 600.667969 248.417969 600.667969 C 288.820312 600.671875 329.085938 617.300781 357.671875 650.554688 C 385.703125 683.8125 346.265625 717.207031 310.949219 672.820312 C 307.375 668.148438 302.703125 663.199219 297.066406 658.664062 C 266.972656 624.445312 235.5 596.273438 187.402344 615.238281 Z M 186.996094 614 " fill-opacity="1" fill-rule="evenodd"/><path fill="#1b17ff" d="M 248.417969 640.25 C 219.558594 639.699219 197.4375 657.972656 185.617188 672.820312 C 150.433594 717.347656 110.859375 683.8125 138.894531 650.554688 C 151.945312 635.578125 193.589844 632.960938 212.414062 633.378906 C 234.261719 634.066406 259.691406 637.5 279.75 646.019531 L 279.617188 647.25 C 270.546875 642.863281 259.960938 639.976562 248.417969 640.25 Z M 248.417969 640.25 " fill-opacity="1" fill-rule="evenodd"/><path fill="#3681ff" d="M 306.414062 667.460938 C 299.40625 659.902344 289.925781 652.066406 278.519531 646.707031 C 273.566406 644.511719 268.484375 642.726562 262.988281 641.621094 C 222.171875 630.765625 152.359375 629.941406 133.808594 657.839844 C 135.183594 655.363281 136.828125 652.890625 138.894531 650.554688 C 153.046875 634.199219 169.8125 621.835938 188.226562 613.585938 C 238.9375 593.664062 272.195312 627.742188 306.414062 667.460938 Z M 306.414062 667.460938 " fill-opacity="1" fill-rule="evenodd"/><g clip-path="url(#a574e87b54)"><g clip-path="url(#7eacbe3295)"><g transform="matrix(1, 0, 0, 1, 198, 646)"><g clip-path="url(#8e0d81ff75)"><g clip-path="url(#fe962c7cef)"><g clip-path="url(#4ce7657df1)"><path fill="#fafafa" d="M 0.0585938 0.9375 L 100.183594 0.9375 L 100.183594 194.144531 L 0.0585938 194.144531 Z M 0.0585938 0.9375 " fill-opacity="1" fill-rule="nonzero"/></g></g></g></g></g></g><g transform="matrix(1, 0, 0, 1, 404, 615)"><g clip-path="url(#6138c34757)"><g fill="#061734" fill-opacity="1"><g transform="translate(1.305992, 212.598724)"><g><path d="M 157.046875 -70.984375 C 155.453125 -47.804688 148.398438 -29.660156 135.890625 -16.546875 C 123.390625 -3.429688 105.859375 3.125 83.296875 3.125 C 71.160156 3.125 60.492188 0.859375 51.296875 -3.671875 C 42.109375 -8.210938 34.382812 -14.4375 28.125 -22.34375 C 21.875 -30.25 17.15625 -39.347656 13.96875 -49.640625 C 10.78125 -59.941406 9.1875 -70.914062 9.1875 -82.5625 C 9.1875 -94.207031 10.78125 -105.179688 13.96875 -115.484375 C 17.15625 -125.785156 21.875 -134.859375 28.125 -142.703125 C 34.382812 -150.546875 42.109375 -156.734375 51.296875 -161.265625 C 60.492188 -165.804688 71.160156 -168.078125 83.296875 -168.078125 C 98.378906 -168.078125 111.160156 -165.070312 121.640625 -159.0625 C 132.117188 -153.0625 140.332031 -144.507812 146.28125 -133.40625 C 152.226562 -122.3125 155.816406 -109.164062 157.046875 -93.96875 L 132.21875 -93.96875 C 130.375 -110.882812 125.5625 -123.328125 117.78125 -131.296875 C 110 -139.265625 98.503906 -143.25 83.296875 -143.25 C 71.410156 -143.25 61.878906 -140.613281 54.703125 -135.34375 C 47.535156 -130.070312 42.328125 -122.867188 39.078125 -113.734375 C 35.828125 -104.597656 34.203125 -94.207031 34.203125 -82.5625 C 34.203125 -70.300781 35.976562 -59.570312 39.53125 -50.375 C 43.09375 -41.1875 48.519531 -34.109375 55.8125 -29.140625 C 63.101562 -24.179688 72.265625 -21.703125 83.296875 -21.703125 C 98.503906 -21.703125 110.0625 -25.53125 117.96875 -33.1875 C 125.875 -40.851562 130.625 -53.453125 132.21875 -70.984375 Z M 157.046875 -70.984375 "/></g></g></g><g fill="#061734" fill-opacity="1"><g transform="translate(169.011155, 212.598724)"><g><path d="M 9.1875 0 L 9.1875 -165.5 L 33.46875 -165.5 L 33.46875 0 Z M 9.1875 0 "/></g></g></g><g fill="#061734" fill-opacity="1"><g transform="translate(214.982969, 212.598724)"><g><path d="M 9.1875 -36.78125 C 9.1875 -50.632812 14.734375 -61.082031 25.828125 -68.125 C 36.929688 -75.175781 53.515625 -80.234375 75.578125 -83.296875 L 100.765625 -86.796875 C 100.765625 -93.410156 98.585938 -99.015625 94.234375 -103.609375 C 89.890625 -108.210938 83.179688 -110.515625 74.109375 -110.515625 C 68.472656 -110.515625 63.171875 -109.6875 58.203125 -108.03125 C 53.234375 -106.375 49.21875 -103.523438 46.15625 -99.484375 C 43.09375 -95.441406 41.5625 -89.863281 41.5625 -82.75 L 17.109375 -82.75 C 17.109375 -93.289062 19.585938 -102.113281 24.546875 -109.21875 C 29.515625 -116.332031 36.316406 -121.664062 44.953125 -125.21875 C 53.597656 -128.78125 63.378906 -130.5625 74.296875 -130.5625 C 84.835938 -130.5625 93.414062 -129.054688 100.03125 -126.046875 C 106.65625 -123.046875 111.804688 -119.0625 115.484375 -114.09375 C 119.160156 -109.132812 121.703125 -103.617188 123.109375 -97.546875 C 124.523438 -91.484375 125.234375 -85.382812 125.234375 -79.25 L 125.234375 -38.4375 C 125.234375 -32.0625 125.84375 -27.367188 127.0625 -24.359375 C 128.289062 -21.359375 130.742188 -19.859375 134.421875 -19.859375 L 136.265625 -19.859375 L 136.265625 0 L 134.421875 0 C 127.191406 0 121.613281 -1.070312 117.6875 -3.21875 C 113.769531 -5.363281 111.039062 -9.222656 109.5 -14.796875 C 107.96875 -20.378906 107.203125 -28.257812 107.203125 -38.4375 L 102.25 -38.4375 C 100.40625 -30.34375 96.96875 -23.257812 91.9375 -17.1875 C 86.914062 -11.125 80.910156 -6.40625 73.921875 -3.03125 C 66.929688 0.332031 59.578125 2.015625 51.859375 2.015625 C 44.617188 2.015625 37.71875 0.695312 31.15625 -1.9375 C 24.601562 -4.570312 19.300781 -8.738281 15.25 -14.4375 C 11.207031 -20.132812 9.1875 -27.582031 9.1875 -36.78125 Z M 33.65625 -36.78125 C 33.65625 -33.101562 34.453125 -29.640625 36.046875 -26.390625 C 37.640625 -23.140625 40.273438 -20.503906 43.953125 -18.484375 C 47.628906 -16.460938 52.53125 -15.453125 58.65625 -15.453125 C 62.332031 -15.453125 66.222656 -16.125 70.328125 -17.46875 C 74.441406 -18.820312 78.519531 -21.273438 82.5625 -24.828125 C 86.613281 -28.378906 90.234375 -33.554688 93.421875 -40.359375 C 96.609375 -47.160156 99.117188 -55.957031 100.953125 -66.75 L 75.578125 -63.4375 C 63.804688 -61.96875 54.914062 -59.820312 48.90625 -57 C 42.90625 -54.1875 38.863281 -51.03125 36.78125 -47.53125 C 34.695312 -44.039062 33.65625 -40.457031 33.65625 -36.78125 Z M 33.65625 -36.78125 "/></g></g></g><g fill="#061734" fill-opacity="1"><g transform="translate(361.908887, 212.598724)"><g><path d="M 65.828125 1.84375 C 55.160156 1.84375 46.179688 0.460938 38.890625 -2.296875 C 31.597656 -5.054688 25.773438 -8.859375 21.421875 -13.703125 C 17.066406 -18.546875 13.9375 -24.0625 12.03125 -30.25 C 10.132812 -36.4375 9.1875 -42.960938 9.1875 -49.828125 L 32.921875 -49.828125 C 33.035156 -38.671875 35.453125 -30.609375 40.171875 -25.640625 C 44.898438 -20.679688 53.453125 -18.203125 65.828125 -18.203125 C 78.335938 -18.203125 87.039062 -19.671875 91.9375 -22.609375 C 96.84375 -25.554688 99.296875 -29.726562 99.296875 -35.125 C 99.296875 -40.882812 97.457031 -45.203125 93.78125 -48.078125 C 90.101562 -50.960938 84.34375 -52.894531 76.5 -53.875 L 55.53125 -57 C 40.082031 -59.332031 28.988281 -64.050781 22.25 -71.15625 C 15.507812 -78.269531 12.140625 -87.222656 12.140625 -98.015625 C 12.140625 -104.023438 13.734375 -109.476562 16.921875 -114.375 C 20.109375 -119.28125 25.441406 -123.203125 32.921875 -126.140625 C 40.398438 -129.085938 50.570312 -130.5625 63.4375 -130.5625 C 74.84375 -130.5625 84.160156 -129.148438 91.390625 -126.328125 C 98.628906 -123.515625 104.238281 -119.867188 108.21875 -115.390625 C 112.207031 -110.910156 114.96875 -106.035156 116.5 -100.765625 C 118.03125 -95.492188 118.796875 -90.347656 118.796875 -85.328125 L 95.078125 -85.140625 C 95.078125 -90.660156 94.125 -95.410156 92.21875 -99.390625 C 90.320312 -103.378906 87.070312 -106.445312 82.46875 -108.59375 C 77.875 -110.738281 71.53125 -111.8125 63.4375 -111.8125 C 52.164062 -111.8125 44.441406 -110.398438 40.265625 -107.578125 C 36.097656 -104.753906 34.015625 -101.078125 34.015625 -96.546875 C 34.015625 -92.003906 35.789062 -87.925781 39.34375 -84.3125 C 42.90625 -80.695312 48.609375 -78.335938 56.453125 -77.234375 L 76.5 -74.296875 C 88.019531 -72.703125 97.085938 -70.21875 103.703125 -66.84375 C 110.328125 -63.46875 115.078125 -59.113281 117.953125 -53.78125 C 120.835938 -48.445312 122.28125 -42.046875 122.28125 -34.578125 C 122.28125 -30.035156 121.421875 -25.617188 119.703125 -21.328125 C 117.992188 -17.035156 115.054688 -13.140625 110.890625 -9.640625 C 106.722656 -6.148438 100.988281 -3.363281 93.6875 -1.28125 C 86.394531 0.800781 77.109375 1.84375 65.828125 1.84375 Z M 65.828125 1.84375 "/></g></g></g><g fill="#061734" fill-opacity="1"><g transform="translate(494.859366, 212.598724)"><g><path d="M 65.828125 1.84375 C 55.160156 1.84375 46.179688 0.460938 38.890625 -2.296875 C 31.597656 -5.054688 25.773438 -8.859375 21.421875 -13.703125 C 17.066406 -18.546875 13.9375 -24.0625 12.03125 -30.25 C 10.132812 -36.4375 9.1875 -42.960938 9.1875 -49.828125 L 32.921875 -49.828125 C 33.035156 -38.671875 35.453125 -30.609375 40.171875 -25.640625 C 44.898438 -20.679688 53.453125 -18.203125 65.828125 -18.203125 C 78.335938 -18.203125 87.039062 -19.671875 91.9375 -22.609375 C 96.84375 -25.554688 99.296875 -29.726562 99.296875 -35.125 C 99.296875 -40.882812 97.457031 -45.203125 93.78125 -48.078125 C 90.101562 -50.960938 84.34375 -52.894531 76.5 -53.875 L 55.53125 -57 C 40.082031 -59.332031 28.988281 -64.050781 22.25 -71.15625 C 15.507812 -78.269531 12.140625 -87.222656 12.140625 -98.015625 C 12.140625 -104.023438 13.734375 -109.476562 16.921875 -114.375 C 20.109375 -119.28125 25.441406 -123.203125 32.921875 -126.140625 C 40.398438 -129.085938 50.570312 -130.5625 63.4375 -130.5625 C 74.84375 -130.5625 84.160156 -129.148438 91.390625 -126.328125 C 98.628906 -123.515625 104.238281 -119.867188 108.21875 -115.390625 C 112.207031 -110.910156 114.96875 -106.035156 116.5 -100.765625 C 118.03125 -95.492188 118.796875 -90.347656 118.796875 -85.328125 L 95.078125 -85.140625 C 95.078125 -90.660156 94.125 -95.410156 92.21875 -99.390625 C 90.320312 -103.378906 87.070312 -106.445312 82.46875 -108.59375 C 77.875 -110.738281 71.53125 -111.8125 63.4375 -111.8125 C 52.164062 -111.8125 44.441406 -110.398438 40.265625 -107.578125 C 36.097656 -104.753906 34.015625 -101.078125 34.015625 -96.546875 C 34.015625 -92.003906 35.789062 -87.925781 39.34375 -84.3125 C 42.90625 -80.695312 48.609375 -78.335938 56.453125 -77.234375 L 76.5 -74.296875 C 88.019531 -72.703125 97.085938 -70.21875 103.703125 -66.84375 C 110.328125 -63.46875 115.078125 -59.113281 117.953125 -53.78125 C 120.835938 -48.445312 122.28125 -42.046875 122.28125 -34.578125 C 122.28125 -30.035156 121.421875 -25.617188 119.703125 -21.328125 C 117.992188 -17.035156 115.054688 -13.140625 110.890625 -9.640625 C 106.722656 -6.148438 100.988281 -3.363281 93.6875 -1.28125 C 86.394531 0.800781 77.109375 1.84375 65.828125 1.84375 Z M 65.828125 1.84375 "/></g></g></g></g></g><g fill="#3681ff" fill-opacity="1"><g transform="translate(1046.63009, 827.086253)"><g><path d="M 9.203125 0 L 9.203125 -165.59375 L 33.484375 -165.59375 L 33.484375 0 Z M 9.203125 0 "/></g></g></g><g fill="#3681ff" fill-opacity="1"><g transform="translate(1094.469136, 827.086253)"><g><path d="M 12.875 0 L 12.875 -128.796875 L 37.171875 -128.796875 L 37.171875 0 Z M 9.203125 -149.953125 L 25.03125 -165.59375 L 40.65625 -149.953125 L 25.03125 -134.3125 Z M 9.203125 -149.953125 "/></g></g></g><g fill="#3681ff" fill-opacity="1"><g transform="translate(1151.323997, 827.086253)"><g><path d="M 9.203125 0 L 9.203125 -128.796875 L 33.484375 -128.796875 L 28.515625 -94.578125 L 33.484375 -94.578125 C 36.671875 -106.597656 42.34375 -115.304688 50.5 -120.703125 C 58.664062 -126.097656 68.695312 -128.796875 80.59375 -128.796875 C 87.457031 -128.796875 93.957031 -127.753906 100.09375 -125.671875 C 106.226562 -123.585938 111.6875 -120.242188 116.46875 -115.640625 C 121.25 -111.046875 125.019531 -104.941406 127.78125 -97.328125 C 130.539062 -89.722656 131.921875 -80.34375 131.921875 -69.1875 L 131.921875 0 L 107.828125 0 L 107.828125 -69.1875 C 107.828125 -79.125 106.382812 -86.972656 103.5 -92.734375 C 100.613281 -98.503906 96.65625 -102.644531 91.625 -105.15625 C 86.601562 -107.664062 80.960938 -108.921875 74.703125 -108.921875 C 66.847656 -108.921875 59.789062 -107.507812 53.53125 -104.6875 C 47.28125 -101.875 42.375 -97.550781 38.8125 -91.71875 C 35.257812 -85.894531 33.484375 -78.382812 33.484375 -69.1875 L 33.484375 0 Z M 9.203125 0 "/></g></g></g><g fill="#3681ff" fill-opacity="1"><g transform="translate(1293.921004, 827.086253)"><g><path d="M 87.40625 -103.40625 L 56.125 -103.40625 L 56.125 -37.171875 C 56.125 -30.785156 56.953125 -26.304688 58.609375 -23.734375 C 60.265625 -21.160156 64.097656 -19.875 70.109375 -19.875 L 78.75 -19.875 L 78.75 0 L 70.109375 0 C 59.429688 0 51.332031 -1.101562 45.8125 -3.3125 C 40.289062 -5.519531 36.578125 -9.320312 34.671875 -14.71875 C 32.773438 -20.113281 31.828125 -27.597656 31.828125 -37.171875 L 31.828125 -103.40625 L 9.203125 -103.40625 L 9.203125 -121.4375 L 31.828125 -121.4375 L 31.828125 -165.421875 L 56.125 -165.421875 L 56.125 -121.4375 L 87.40625 -121.4375 Z M 87.40625 -103.40625 "/></g></g></g></svg>